<?xml version="1.0" encoding="UTF-8"?>
<svg width="500" height="205" version="1.1" viewBox="0 0 500 205" xmlns="http://www.w3.org/2000/svg" xmlns:cc="http://creativecommons.org/ns#" xmlns:dc="http://purl.org/dc/elements/1.1/" xmlns:rdf="http://www.w3.org/1999/02/22-rdf-syntax-ns#">
 <metadata>
  <rdf:RDF>
   <cc:Work rdf:about="">
    <dc:format>image/svg+xml</dc:format>
    <dc:type rdf:resource="http://purl.org/dc/dcmitype/StillImage"/>
    <dc:title>Monroe College</dc:title>
   </cc:Work>
  </rdf:RDF>
 </metadata>
 <title>Monroe College</title>
 <path id="College" d="m51.47 178.31c8.9347 0 16.767-5.0636 20.817-12.984v30.03c-6.1773 2.8672-13.179 4.4845-20.817 4.4845-26.966 0-46.47-19.486-46.47-47.139 0-25.848 22.286-43.981 46.47-43.981 7.3014 0 14.425 1.6804 20.817 4.7051v28.861c-4.0499-6.9735-11.882-12.036-20.817-12.036-13.039 0-23.74 10.771-23.74 22.559 0 14.732 10.701 25.502 23.74 25.502zm70.93 20.856c26.736 0 46.084-19.329 46.084-46.749 0-25.62-22.117-43.6-46.084-43.6-23.989 0-46.088 17.98-46.088 43.6 0 27.42 19.345 46.749 46.088 46.749zm195.63-55.879v-16.079h34.303v-17.988h-54.64v87.95h54.64v-17.977h-34.303v-17.916h29.651v-17.991zm142.66-16.079v16.079h32.804v17.991h-32.804v17.916h34.303v17.977h-54.645v-87.95h54.645v17.988zm-231.41 50.631h-32.17v-68.582h-21.733v87.937h53.903zm28.942 0h32.177v19.355h-53.904v-87.937h21.727zm142.19 20.811c7.2177 0 17.125-0.24171 30.418-3.925v-47.603h-32.565v16.202h12.293v16.922c-1.923 0.97977-4.6265 1.4719-7.4423 1.4719-15.314 0-26.254-10.187-26.254-26.985 0-20.001 13.972-27.731 30.996-27.731 4.9438 0 12.613 1.3503 19.149 5.5363l1.6872-18.661c-7.6585-3.1852-18.585-3.7989-23.773-3.7989-28.86 0-49.707 12.39-49.707 44.655 0 32.388 24.236 43.917 45.199 43.917zm-301.56-46.121c0 14.621 10.605 25.278 23.539 25.278 12.93 0 23.532-10.657 23.532-25.278 0-11.691-10.602-22.366-23.532-22.366-12.934 0-23.539 10.675-23.539 22.366z" fill="#ffc423" fill-rule="evenodd" stroke-width="2.8074"/>
 <path id="Monroe" d="m391.85 5.1613c-23.879 0-45.892 17.907-45.892 43.421 0 27.299 19.261 46.545 45.892 46.545 26.619 0 45.889-19.246 45.889-46.545 0-25.515-22.015-43.421-45.889-43.421zm-244 0.77568c-23.883 0-45.892 17.905-45.892 43.421 0 27.297 19.262 46.544 45.892 46.544 26.621 0 45.889-19.246 45.889-46.544 0-25.516-22.017-43.421-45.889-43.421zm-109.03 2.7921h-20.175l-13.386 84.38h20.388l6.5933-48.563h0.20359l18.092 48.563h8.154l18.918-48.563h0.21111l5.7509 48.563h20.492l-11.916-84.38h-20.392l-16.935 45.091zm158.86 84.38h20.512v-51.699h0.21252l37.581 51.699h20.522v-84.38h-20.522v51.595h-0.20662l-37.587-51.595h-20.512zm297.19-84.38v18.582h-33.118v14.108h31.796v18.588h-31.796v14.553h33.118v18.583h-54.696v-84.414zm-149.73 25.941c0 11.625-6.3755 21.682-18.136 23.808l24.705 34.536h-25.474l-20.331-32.414h-0.21897v32.414h-21.542v-84.27h32.202c16.375 0 28.795 7.9338 28.795 25.926zm-39.455-9.164h2.0859c7.0352 0 14.952 1.3413 14.952 10.505 0 9.1672-7.9168 10.509-14.952 10.509h-2.0859zm86.169 0.90919c12.875 0 23.433 10.642 23.433 22.274 0 14.558-10.558 25.174-23.433 25.174-12.883 0-23.444-10.616-23.444-25.174 0-11.632 10.561-22.274 23.444-22.274zm-220.57 23.048c0-11.632-10.559-22.274-23.434-22.274-12.884 0-23.443 10.642-23.443 22.274 0 14.558 10.559 25.176 23.443 25.176 12.875 0 23.434-10.618 23.434-25.176z" fill="#19388a" fill-rule="evenodd" stroke-width="2.8074"/>
</svg>
